<svg width="300" height="468" viewBox="0 0 1200 468" fill="none" xmlns="http://www.w3.org/2000/svg">
<g clip-path="url(#clip0_4291_253)">
<path fill-rule="evenodd" clip-rule="evenodd" d="M965.943 468C836.882 468 731.887 363.03 731.887 234C731.887 104.97 836.882 0 965.943 0C1095 0 1200 104.97 1200 234C1200 363.03 1095 468 965.943 468ZM965.952 26.2661C851.369 26.2661 758.159 119.462 758.159 234.009C758.159 348.565 851.369 441.752 965.952 441.752C1080.54 441.752 1173.75 348.565 1173.75 234.009C1173.75 119.462 1080.54 26.2661 965.952 26.2661ZM324.854 273.806C324.854 292.838 333.394 303.721 348.922 303.721C363.287 303.721 372.215 293.226 372.215 275.358V172.007C372.215 152.975 373.766 147.145 381.53 137.435C389.295 127.717 401.721 121.508 414.535 121.508C426.573 121.508 439.766 127.717 447.539 137.039C455.691 146.361 457.63 154.527 457.63 177.836V269.917C457.63 304.877 449.478 330.134 430.847 351.115C409.493 375.597 379.987 389.188 348.526 389.188C313.591 389.188 280.983 372.484 260.396 344.122C244.488 322.365 239.438 303.712 239.438 269.917V178.612C239.438 154.139 240.99 147.93 248.358 138.203C256.518 128.105 269.332 121.508 282.146 121.508C293.401 121.508 305.439 126.553 313.203 135.099C321.743 143.645 324.854 153.751 324.854 172.007V273.806ZM44.2671 203.792C29.1181 203.792 19.423 200.299 12.0383 192.521C4.27406 184.363 0 174.265 0 163.771C0 149.404 9.32372 133.864 22.1294 128.423C30.6693 124.534 34.1677 124.146 68.3355 124.146H154.518C185.187 124.146 186.359 124.146 195.295 128.035C208.488 133.468 218.2 148.619 218.2 163.779C218.2 175.041 213.15 186.312 204.223 194.47C197.622 200.679 187.143 203.792 171.606 203.792H152.199V332.781C152.199 348.32 150.26 356.866 144.823 365.808C137.455 378.243 124.633 385.237 109.888 385.237C95.5228 385.237 82.321 378.631 74.5568 367.361C68.3355 358.427 66.7843 351.045 66.7843 333.557V203.792H44.2671ZM592.88 303.721C577.352 303.721 568.812 292.838 568.812 273.806V172.007C568.812 153.751 565.701 143.645 557.161 135.099C549.397 126.553 537.359 121.508 526.104 121.508C513.29 121.508 500.476 128.105 492.316 138.203C484.948 147.93 483.396 154.139 483.396 178.612V269.917C483.396 303.712 488.446 322.365 504.354 344.122C524.941 372.484 557.549 389.188 592.484 389.188C623.945 389.188 653.451 375.597 674.805 351.115C693.436 330.134 701.588 304.877 701.588 269.917V177.836C701.588 154.527 699.649 146.361 691.497 137.039C683.724 127.717 670.531 121.508 658.493 121.508C645.679 121.508 633.253 127.717 625.488 137.435C617.724 147.145 616.173 152.975 616.173 172.007V275.358C616.173 293.226 607.245 303.721 592.88 303.721ZM973.712 142.179C973.712 135.103 979.446 129.365 986.518 129.365C993.589 129.365 999.323 135.103 999.323 142.179V155.539C999.323 170.459 1011.6 182.588 1026.69 182.588C1041.78 182.588 1054.05 170.459 1054.05 155.539V142.633C1054.04 142.476 1054.04 142.336 1054.04 142.179L1054.04 142.104L1054.04 142.047C1054.04 141.943 1054.04 141.844 1054.05 141.733C1054.28 134.855 1059.93 129.365 1066.84 129.365C1073.92 129.365 1079.66 135.103 1079.66 142.179H1079.7V155.539C1079.7 184.603 1055.91 208.242 1026.69 208.242C997.467 208.242 973.712 184.603 973.712 155.539V142.179ZM899.915 203.013C903.059 201.089 904.94 197.622 904.94 193.922V152.052H909.288C919.107 152.052 926.335 140.963 919.264 130.699C917.341 127.917 914.066 126.389 910.691 126.389H874.914C868.33 126.389 862.893 131.393 862.175 137.776C862.109 138.271 862.084 138.733 862.084 139.229C862.084 139.724 862.109 140.195 862.175 140.666C862.893 147.048 868.33 152.052 874.914 152.052H879.329V192.519C879.329 202.097 889.808 209.206 899.915 203.013ZM1081.24 267.399C1081.24 267.845 1081.21 268.275 1081.17 268.72H1081.21C1077.58 325.751 1029.68 371.064 971.374 371.064C913.063 371.064 865.191 325.751 861.56 268.72C861.511 268.275 861.494 267.845 861.494 267.399C861.494 260.315 867.253 254.576 874.3 254.576C880.934 254.576 886.371 259.605 887.064 266.029V266.078C889.35 310.203 926.323 345.427 971.374 345.427C1016.45 345.427 1053.41 310.203 1055.69 266.078V266.029C1056.36 259.605 1061.8 254.576 1068.43 254.576C1075.5 254.576 1081.24 260.315 1081.24 267.399Z" fill="#1633FF"/>
</g>
<defs>
<clipPath id="clip0_4291_253">
<rect width="1200" height="468" fill="white"/>
</clipPath>
</defs>
</svg>
